<svg xmlns="http://www.w3.org/2000/svg" viewBox="0 0 1620.26 2486.3125" x="0px" y="0px"><title>Bebé</title><g data-name="Capa 2"><path d="M849.52,800.52a40,40,0,0,0-.22-56.57,178.86,178.86,0,0,0-251.62,0A40,40,0,0,0,654,800.74c38.31-38,100.63-38,138.94,0A40,40,0,0,0,849.52,800.52Z" transform="translate(-190.72 -5.95)"/><path d="M1152,1010.11c-78.17,77.56-205.36,77.56-283.54,0a40,40,0,1,0-56.34,56.79,281.68,281.68,0,0,0,396.23,0,40,40,0,1,0-56.34-56.79Z" transform="translate(-190.72 -5.95)"/><path d="M1402.6,800.52a40,40,0,0,0-.22-56.57,178.86,178.86,0,0,0-251.63,0,40,40,0,0,0,56.35,56.79c38.31-38,100.63-38,138.93,0a40,40,0,0,0,56.57-.22Z" transform="translate(-190.72 -5.95)"/><path d="M1693,1459.52c-68.45-132-163.17-242.46-275.5-321.74l.72-.73a587.17,587.17,0,0,0,123.33-187,594.05,594.05,0,0,0,24.16-70.63c89.17,0,161.72-72.12,161.72-160.77s-72.55-160.77-161.72-160.77c-.49,0-1,0-1.47,0a594.34,594.34,0,0,0-22.68-65.34,587.18,587.18,0,0,0-123.33-187,580.89,580.89,0,0,0-86.73-73,221.67,221.67,0,0,0,3.94-42.06c-.05-38-9.53-74.9-27.41-106.63-19.52-34.64-47.67-60.52-81.4-74.82a40,40,0,1,0-31.24,73.65c35.35,15,59.29,57.39,60,105.89q-10.1-4.84-20.4-9.3a567.4,567.4,0,0,0-449.34,0A573.94,573.94,0,0,0,602.43,305.63a587.17,587.17,0,0,0-123.33,187,594.35,594.35,0,0,0-22.68,65.33c-.42,0-.84,0-1.27,0C366,557.91,293.43,630,293.43,718.67s72.44,160.65,161.52,160.76a594,594,0,0,0,24.16,70.63,587.08,587.08,0,0,0,116.83,180.21c-114.7,76.61-211.42,184.92-281.69,316.06C233.43,1597.14,190.72,1773,190.72,1955a40,40,0,1,0,80,0c0-327.43,147.22-619,386.1-768.87a570.94,570.94,0,0,0,128.83,77.18,567.4,567.4,0,0,0,449.34,0,570.85,570.85,0,0,0,120.75-70.87C1587.66,1346.88,1731,1637.08,1731,1955a40,40,0,0,0,80,0C1811,1779.7,1770.18,1608.36,1693,1459.52Zm-45.58-740.84c0,39-28.18,71.7-65.5,79.16a610.31,610.31,0,0,0-.71-158.45C1618.88,646.57,1647.42,679.38,1647.42,718.67Zm-1274,0c0-39.22,28.44-72,66-79.25a610.32,610.32,0,0,0-.71,158.38C401.5,790.26,373.43,757.65,373.43,718.67Zm636.89,511c-120.09,0-230.35-43.9-316.3-116.84a39.75,39.75,0,0,0-12.94-11.36c-102.49-93.19-167.18-229.08-167.18-380.14C513.91,441,736.6,213,1010.32,213a484,484,0,0,1,221.74,53.59,121.21,121.21,0,0,1-51.24,40.57c-42.94,18.36-79.51,18.25-108.7-.34a108,108,0,0,1-33.09-34,40.07,40.07,0,0,0-72.86,33.28l-.08,0c.16.33.45.91.86,1.68a40,40,0,0,0,2.14,3.88,187.36,187.36,0,0,0,55.85,59.84A169.71,169.71,0,0,0,1121.44,401c26.42,0,56.7-5.66,90.83-20.25,36.47-15.59,66.69-40.29,88-71.76,125,92.4,206.47,242.83,206.47,412.38C1506.74,1001.64,1284,1229.68,1010.32,1229.68Z" transform="translate(-190.72 -5.95)"/></g><text x="0" y="2004.05" fill="#000000" font-size="5px" font-weight="bold" font-family="'Helvetica Neue', Helvetica, Arial-Unicode, Arial, Sans-serif">Created by Linker</text><text x="0" y="2009.05" fill="#000000" font-size="5px" font-weight="bold" font-family="'Helvetica Neue', Helvetica, Arial-Unicode, Arial, Sans-serif">from the Noun Project</text></svg>